# xmcd CD database file
#
# Track frame offsets:
#	150
#	16477
#	34367
#	46245
#	70365
#	81787
#	91190
#	103345
#	127132
#	138947
#	154952
#	164102
#	177887
#	187957
#	202220
#	211882
#	237657
#	255155
#	273255
#
# Disc length: 3844 seconds
#
# Revision: 11
# Processed by: cddbd v1.5.2PL0 Copyright (c) Steve Scherf et al.
# Submitted via: CDex 1.99.1
#
DISCID=190f0213
DTITLE=Mississippi Fred McDowell - Mississippi Delta Blues
DYEAR=1989
DGENRE=Blues
TTITLE0=Write Me A Few Lines
TTITLE1=Louise
TTITLE2=I Heard Somebody Call
TTITLE3=61 Highway
TTITLE4=Mama Don't Allow
TTITLE5=Kokomo Blues
TTITLE6=Fred's Worried Life Blues
TTITLE7=You Gonna Be Sorry
TTITLE8=Shake 'Em On Down
TTITLE9=My Trouble Blues
TTITLE10=Black Minnie
TTITLE11=That's Alright
TTITLE12=When I Lay My Burden Down
TTITLE13=I Ain't Gonna Be Bad No Mo'
TTITLE14=Do My Baby Ever Think Of Me
TTITLE15=Mississippi Fred McDowell and Eli Green-Brooks Run Into The Ocean
TTITLE16=Mississippi Fred McDowell and Eli Green-Bull Dog Blues
TTITLE17=Frisco Line
TTITLE18=You Gotta Move
EXTD=Arhoolie CD 304\n\nRecorded in Mississippi and California in 1964 and 1965 by Chris Strachwitz\n\nTracks 1 - 15:  Fred McDowell (vocals and guitar]\nTrack 13:  sung by Annie Mae McDowell\nTrack 16 - 17:  Eli Green (vocals and guitar) - Fred McDowell(
EXTD=lead guitar]\nTrack 18 - 19:  Fred McDowell (vocals and guitar]\n\n[Submitted 6/2/97 - J. Rockwall McCoy]\n[Jmccoy@efn.org] YEAR: 1989
EXTT0=
EXTT1=
EXTT2=
EXTT3=
EXTT4=
EXTT5=
EXTT6=
EXTT7=
EXTT8=
EXTT9=
EXTT10=
EXTT11=
EXTT12=
EXTT13=
EXTT14=
EXTT15=
EXTT16=
EXTT17=
EXTT18=
PLAYORDER=
